<?xml version="1.0" encoding="UTF-8"?>
<svg xmlns="http://www.w3.org/2000/svg" xmlns:xlink="http://www.w3.org/1999/xlink" width="44px" height="40px" viewBox="0 0 43 40" version="1.1">
<g id="surface1">
<path style=" stroke:none;fill-rule:nonzero;fill:rgb(16.862745%,17.254902%,20.392157%);fill-opacity:1;" d="M 34.359375 11.289062 C 34.894531 11.289062 35.347656 11.105469 35.710938 10.734375 C 36.074219 10.363281 36.253906 9.902344 36.253906 9.355469 C 36.253906 8.804688 36.074219 8.347656 35.710938 7.976562 C 35.347656 7.605469 34.894531 7.417969 34.359375 7.417969 C 33.820312 7.417969 33.371094 7.605469 33.007812 7.976562 C 32.640625 8.347656 32.460938 8.804688 32.460938 9.355469 C 32.460938 9.902344 32.640625 10.363281 33.007812 10.734375 C 33.371094 11.105469 33.820312 11.289062 34.359375 11.289062 Z M 26.769531 11.289062 C 27.308594 11.289062 27.757812 11.105469 28.121094 10.734375 C 28.484375 10.363281 28.667969 9.902344 28.667969 9.355469 C 28.667969 8.804688 28.484375 8.347656 28.121094 7.976562 C 27.757812 7.605469 27.308594 7.417969 26.769531 7.417969 C 26.230469 7.417969 25.78125 7.605469 25.417969 7.976562 C 25.054688 8.347656 24.871094 8.804688 24.871094 9.355469 C 24.871094 9.902344 25.054688 10.363281 25.417969 10.734375 C 25.78125 11.105469 26.230469 11.289062 26.769531 11.289062 Z M 25.820312 17.871094 L 35.304688 17.871094 C 35.304688 16.742188 34.824219 15.847656 33.859375 15.183594 C 32.894531 14.523438 31.796875 14.195312 30.5625 14.195312 C 29.332031 14.195312 28.230469 14.523438 27.265625 15.183594 C 26.304688 15.847656 25.820312 16.742188 25.820312 17.871094 Z M 11.59375 39.355469 C 8.429688 39.355469 5.742188 38.226562 3.53125 35.96875 C 1.316406 33.710938 0.210938 30.96875 0.210938 27.742188 L 0.210938 14.195312 L 22.976562 14.195312 L 22.976562 27.742188 C 22.976562 30.96875 21.867188 33.710938 19.65625 35.96875 C 17.441406 38.226562 14.753906 39.355469 11.59375 39.355469 Z M 11.59375 35.484375 C 13.679688 35.484375 15.464844 34.726562 16.953125 33.210938 C 18.4375 31.695312 19.179688 29.871094 19.179688 27.742188 L 19.179688 18.066406 L 4.003906 18.066406 L 4.003906 27.742188 C 4.003906 29.871094 4.746094 31.695312 6.234375 33.210938 C 7.71875 34.726562 9.507812 35.484375 11.59375 35.484375 Z M 30.5625 25.804688 C 29.742188 25.804688 28.925781 25.71875 28.121094 25.539062 C 27.316406 25.363281 26.546875 25.097656 25.820312 24.742188 L 25.820312 20.195312 C 26.515625 20.742188 27.265625 21.167969 28.074219 21.476562 C 28.878906 21.78125 29.710938 21.933594 30.5625 21.933594 C 32.652344 21.933594 34.4375 21.175781 35.921875 19.660156 C 37.410156 18.144531 38.152344 16.324219 38.152344 14.195312 L 38.152344 4.515625 L 22.976562 4.515625 L 22.976562 11.289062 L 19.179688 11.289062 L 19.179688 0.644531 L 41.945312 0.644531 L 41.945312 14.195312 C 41.945312 17.417969 40.839844 20.160156 38.625 22.417969 C 36.414062 24.675781 33.726562 25.804688 30.5625 25.804688 Z M 7.800781 24.839844 C 8.335938 24.839844 8.785156 24.652344 9.152344 24.28125 C 9.515625 23.910156 9.695312 23.453125 9.695312 22.902344 C 9.695312 22.355469 9.515625 21.894531 9.152344 21.523438 C 8.785156 21.152344 8.335938 20.96875 7.800781 20.96875 C 7.261719 20.96875 6.8125 21.152344 6.449219 21.523438 C 6.082031 21.894531 5.902344 22.355469 5.902344 22.902344 C 5.902344 23.453125 6.082031 23.910156 6.449219 24.28125 C 6.8125 24.652344 7.261719 24.839844 7.800781 24.839844 Z M 15.386719 24.839844 C 15.925781 24.839844 16.375 24.652344 16.738281 24.28125 C 17.101562 23.910156 17.285156 23.453125 17.285156 22.902344 C 17.285156 22.355469 17.101562 21.894531 16.738281 21.523438 C 16.375 21.152344 15.925781 20.96875 15.386719 20.96875 C 14.851562 20.96875 14.398438 21.152344 14.035156 21.523438 C 13.671875 21.894531 13.492188 22.355469 13.492188 22.902344 C 13.492188 23.453125 13.671875 23.910156 14.035156 24.28125 C 14.398438 24.652344 14.851562 24.839844 15.386719 24.839844 Z M 11.59375 31.417969 C 12.828125 31.417969 13.925781 31.089844 14.890625 30.425781 C 15.855469 29.765625 16.335938 28.871094 16.335938 27.742188 L 6.851562 27.742188 C 6.851562 28.871094 7.332031 29.765625 8.296875 30.425781 C 9.261719 31.089844 10.359375 31.417969 11.59375 31.417969 Z M 11.59375 31.417969 "/>
</g>
</svg>
