<?xml version="1.0" encoding="UTF-8"?>
<svg xmlns="http://www.w3.org/2000/svg" xmlns:xlink="http://www.w3.org/1999/xlink" width="40px" height="40px" viewBox="0 0 40 40" version="1.1">
<g id="surface1">
<path style="fill:none;stroke-width:2.7;stroke-linecap:round;stroke-linejoin:round;stroke:rgb(10.588235%,11.372549%,11.764706%);stroke-opacity:1;stroke-miterlimit:10;" d="M 48.5375 25.64375 C 49.03125 25.64375 49.425 26.0375 49.425 26.53125 C 49.425 27.025 49.03125 27.41875 48.5375 27.41875 C 48.05 27.41875 47.65 27.025 47.65 26.53125 " transform="matrix(0.625,0,0,0.625,0,0)"/>
<path style="fill:none;stroke-width:2.7;stroke-linecap:round;stroke-linejoin:round;stroke:rgb(10.588235%,11.372549%,11.764706%);stroke-opacity:1;stroke-miterlimit:10;" d="M 25.625 39.725 C 24.925 40.94375 23.99375 40.40625 23.29375 41.625 C 22.5875 42.85 23.51875 43.38125 22.81875 44.60625 C 22.1125 45.825 21.18125 45.2875 20.48125 46.5125 " transform="matrix(0.625,0,0,0.625,0,0)"/>
<path style="fill:none;stroke-width:2.7;stroke-linecap:round;stroke-linejoin:round;stroke:rgb(10.588235%,11.372549%,11.764706%);stroke-opacity:1;stroke-miterlimit:10;" d="M 43.3125 57.1875 L 39.95 55.075 " transform="matrix(0.625,0,0,0.625,0,0)"/>
<path style="fill:none;stroke-width:2.7;stroke-linecap:round;stroke-linejoin:round;stroke:rgb(10.588235%,11.372549%,11.764706%);stroke-opacity:1;stroke-miterlimit:10;" d="M 14.1625 12.08125 L 17.525 9.975 " transform="matrix(0.625,0,0,0.625,0,0)"/>
<path style="fill:none;stroke-width:2.7;stroke-linecap:round;stroke-linejoin:round;stroke:rgb(10.588235%,11.372549%,11.764706%);stroke-opacity:1;stroke-miterlimit:10;" d="M 52.4125 8.64375 C 51.925 8.8625 51.4375 9.08125 50.95 9.3 " transform="matrix(0.625,0,0,0.625,0,0)"/>
<path style="fill:none;stroke-width:2.7;stroke-linecap:round;stroke-linejoin:round;stroke:rgb(10.588235%,11.372549%,11.764706%);stroke-opacity:1;stroke-miterlimit:10;" d="M 30.76875 17.70625 L 35.5875 26.16875 L 38.3375 22.43125 L 43.075 21.75625 L 39.2625 14.3375 " transform="matrix(0.625,0,0,0.625,0,0)"/>
<path style="fill:none;stroke-width:2.7;stroke-linecap:round;stroke-linejoin:round;stroke:rgb(10.588235%,11.372549%,11.764706%);stroke-opacity:1;stroke-miterlimit:10;" d="M 40.7125 32 L 37.18125 39.55 L 41.81875 39.64375 L 45.10625 43.1125 L 48.64375 36.33125 " transform="matrix(0.625,0,0,0.625,0,0)"/>
<path style="fill:none;stroke-width:2.7;stroke-linecap:round;stroke-linejoin:round;stroke:rgb(10.588235%,11.372549%,11.764706%);stroke-opacity:1;stroke-miterlimit:10;" d="M 19.01875 22 L 27.4625 29.00625 L 27.73125 22.40625 " transform="matrix(0.625,0,0,0.625,0,0)"/>
<path style="fill:none;stroke-width:2.7;stroke-linecap:round;stroke-linejoin:round;stroke:rgb(10.588235%,11.372549%,11.764706%);stroke-opacity:1;stroke-miterlimit:10;" d="M 51.0375 42.075 L 51.175 47.20625 L 58.86875 40.99375 " transform="matrix(0.625,0,0,0.625,0,0)"/>
<path style="fill:none;stroke-width:2.7;stroke-linecap:round;stroke-linejoin:round;stroke:rgb(10.588235%,11.372549%,11.764706%);stroke-opacity:1;stroke-miterlimit:10;" d="M 45.0375 15.05 L 52.04375 19.275 L 50.8 7.89375 L 41.7125 13.0375 L 41.98125 13.2 C 33.4625 16.78125 24.78125 20.06875 15.96875 23.04375 " transform="matrix(0.625,0,0,0.625,0,0)"/>
<path style="fill:none;stroke-width:2.7;stroke-linecap:round;stroke-linejoin:round;stroke:rgb(10.588235%,11.372549%,11.764706%);stroke-opacity:1;stroke-miterlimit:10;" d="M 60.8 41.76875 C 53.04375 38.73125 45.61875 35.03125 38.6 30.73125 " transform="matrix(0.625,0,0,0.625,0,0)"/>
<path style="fill:none;stroke-width:2.7;stroke-linecap:round;stroke-linejoin:round;stroke:rgb(10.588235%,11.372549%,11.764706%);stroke-opacity:1;stroke-miterlimit:10;" d="M 3.48125 26.7 C 5.16875 26.35 6.9 25.98125 7.24375 25.875 L 6.85625 24.0875 L 15.89375 22.625 L 17.66875 33.0125 L 12.95 32.23125 L 9.2 34.9625 L 8.125 29.98125 " transform="matrix(0.625,0,0,0.625,0,0)"/>
</g>
</svg>
