<?xml version="1.0" encoding="UTF-8"?>
<svg xmlns="http://www.w3.org/2000/svg" xmlns:xlink="http://www.w3.org/1999/xlink" width="40px" height="40px" viewBox="0 0 40 40" version="1.1">
<g id="surface1">
<path style=" stroke:none;fill-rule:evenodd;fill:rgb(0%,0%,0%);fill-opacity:1;" d="M 20.023438 5 C 21.722656 5 23.246094 5.882812 24.085938 7.359375 L 36.066406 28.296875 C 36.902344 29.761719 36.898438 31.511719 36.050781 32.972656 C 35.199219 34.4375 33.6875 35.308594 31.996094 35.308594 L 8.027344 35.308594 C 6.335938 35.308594 4.820312 34.4375 3.972656 32.972656 C 3.125 31.511719 3.121094 29.761719 3.957031 28.296875 L 15.957031 7.355469 C 16.800781 5.878906 18.320312 5 20.019531 5 Z M 20.019531 7.5 C 19.226562 7.5 18.519531 7.910156 18.125 8.597656 L 6.128906 29.539062 C 5.738281 30.222656 5.742188 31.039062 6.136719 31.71875 C 6.53125 32.402344 7.238281 32.808594 8.027344 32.808594 L 31.996094 32.808594 C 32.785156 32.808594 33.492188 32.402344 33.886719 31.71875 C 34.28125 31.039062 34.285156 30.222656 33.894531 29.539062 L 21.917969 8.597656 C 21.523438 7.910156 20.816406 7.5 20.019531 7.5 Z M 20.011719 25.832031 C 20.929688 25.832031 21.675781 26.578125 21.675781 27.5 C 21.675781 28.421875 20.929688 29.164062 20.011719 29.164062 C 19.089844 29.164062 18.335938 28.421875 18.335938 27.5 C 18.335938 26.578125 19.074219 25.832031 19.992188 25.832031 Z M 20.007812 15.941406 C 20.695312 15.941406 21.257812 16.5 21.257812 17.191406 L 21.257812 22.355469 C 21.257812 23.046875 20.695312 23.605469 20.007812 23.605469 C 19.316406 23.605469 18.757812 23.046875 18.757812 22.355469 L 18.757812 17.191406 C 18.757812 16.5 19.316406 15.941406 20.007812 15.941406 Z M 20.007812 15.941406 "/>
</g>
</svg>
