<?xml version="1.0" encoding="UTF-8"?>
<svg xmlns="http://www.w3.org/2000/svg" xmlns:xlink="http://www.w3.org/1999/xlink" width="40px" height="40px" viewBox="0 0 40 40" version="1.1">
<g id="surface1">
<path style=" stroke:none;fill-rule:nonzero;fill:rgb(0.392157%,0%,0.784314%);fill-opacity:1;" d="M 11.023438 5.636719 C 11.023438 7.246094 9.710938 8.550781 8.101562 8.550781 C 6.488281 8.550781 5.179688 7.246094 5.179688 5.636719 C 5.179688 4.027344 6.484375 2.71875 8.101562 2.71875 C 9.710938 2.71875 11.023438 4.023438 11.023438 5.636719 Z M 8.40625 25.609375 L 9.039062 36.371094 C 9.039062 36.746094 9.34375 37.054688 9.71875 37.054688 C 10.097656 37.054688 10.40625 36.746094 10.40625 36.371094 L 10.988281 25.609375 L 12.894531 25.609375 L 10.925781 13.542969 L 14.886719 21.429688 C 15.03125 21.777344 15.433594 21.945312 15.785156 21.800781 C 16.128906 21.648438 16.296875 21.253906 16.148438 20.898438 C 16.148438 20.898438 13.246094 13.050781 12.527344 11.585938 C 11.808594 10.121094 11.105469 9.230469 8.378906 9.230469 L 7.824219 9.230469 C 5.101562 9.230469 4.390625 10.121094 3.679688 11.585938 C 2.960938 13.050781 0.0546875 20.898438 0.0546875 20.898438 C -0.09375 21.253906 0.0703125 21.648438 0.414062 21.800781 C 0.765625 21.945312 1.164062 21.777344 1.316406 21.429688 L 5.277344 13.542969 L 3.308594 25.609375 L 5.207031 25.609375 L 5.800781 36.371094 C 5.800781 36.746094 6.109375 37.054688 6.480469 37.054688 C 6.867188 37.054688 7.171875 36.746094 7.171875 36.371094 L 7.761719 25.609375 Z M 31.667969 2.710938 C 30.054688 2.710938 28.742188 4.015625 28.742188 5.628906 C 28.742188 7.242188 30.050781 8.546875 31.667969 8.546875 C 33.273438 8.546875 34.578125 7.242188 34.578125 5.628906 C 34.578125 4.015625 33.273438 2.710938 31.667969 2.710938 Z M 34.691406 19.878906 L 34.882812 13.535156 L 38.445312 21.425781 C 38.597656 21.773438 39 21.9375 39.34375 21.789062 C 39.699219 21.636719 39.859375 21.242188 39.714844 20.890625 C 39.714844 20.890625 37.207031 13.039062 36.488281 11.578125 C 35.769531 10.113281 34.664062 9.226562 31.941406 9.226562 L 31.382812 9.226562 C 28.664062 9.226562 27.558594 10.113281 26.835938 11.578125 C 26.125 13.039062 23.617188 20.890625 23.617188 20.890625 C 23.46875 21.242188 23.632812 21.636719 23.980469 21.789062 C 24.328125 21.941406 24.734375 21.773438 24.871094 21.425781 L 28.445312 13.535156 L 28.636719 19.878906 L 28.074219 35.828125 C 28.035156 36.457031 28.507812 37.007812 29.136719 37.050781 C 29.164062 37.054688 29.195312 37.054688 29.21875 37.054688 C 29.816406 37.054688 30.320312 36.59375 30.367188 35.988281 L 31.660156 22.855469 L 32.964844 35.988281 C 33.003906 36.597656 33.511719 37.054688 34.101562 37.054688 C 34.132812 37.054688 34.15625 37.054688 34.183594 37.050781 C 34.816406 37.007812 35.289062 36.457031 35.246094 35.828125 L 34.683594 19.878906 Z M 19.882812 20.445312 C 18.890625 20.445312 18.085938 21.242188 18.085938 22.226562 C 18.085938 23.21875 18.890625 24.015625 19.882812 24.015625 C 20.871094 24.015625 21.675781 23.21875 21.675781 22.226562 C 21.675781 21.242188 20.871094 20.445312 19.882812 20.445312 Z M 19.882812 30.984375 C 19.882812 30.984375 20.6875 36.578125 20.6875 36.582031 C 20.800781 36.859375 21.054688 37.054688 21.371094 37.054688 C 21.691406 37.054688 21.960938 36.839844 22.058594 36.550781 C 22.0625 36.53125 22.082031 36.203125 22.0625 36.148438 L 21.734375 29.269531 L 21.839844 26.90625 C 21.933594 26.105469 21.949219 26.34375 22.863281 25.796875 C 23.796875 25.238281 25.378906 22.777344 25.457031 22.65625 C 25.53125 22.535156 25.679688 22.320312 25.707031 22.179688 C 25.75 21.933594 25.589844 21.699219 25.347656 21.648438 C 25.160156 21.617188 25.003906 21.714844 24.878906 21.84375 C 24.757812 21.980469 22.933594 24.40625 21.566406 24.640625 C 21.257812 24.597656 20.925781 24.433594 20.054688 24.433594 L 19.710938 24.433594 C 18.84375 24.433594 18.511719 24.597656 18.203125 24.640625 C 16.832031 24.40625 15.003906 21.980469 14.875 21.84375 C 14.757812 21.714844 14.609375 21.617188 14.417969 21.648438 C 14.175781 21.699219 14.011719 21.933594 14.058594 22.179688 C 14.085938 22.320312 14.230469 22.535156 14.308594 22.65625 C 14.386719 22.777344 15.976562 25.238281 16.90625 25.796875 C 17.820312 26.34375 17.839844 26.101562 17.929688 26.90625 L 18.03125 29.269531 L 17.703125 36.148438 C 17.683594 36.203125 17.703125 36.535156 17.714844 36.550781 C 17.8125 36.839844 18.078125 37.054688 18.398438 37.054688 C 18.707031 37.054688 18.972656 36.859375 19.074219 36.582031 C 19.074219 36.578125 19.882812 30.984375 19.882812 30.984375 "/>
</g>
</svg>
