<svg width="50" height="51" viewBox="0 0 50 51" fill="none" xmlns="http://www.w3.org/2000/svg">
<g clip-path="url(#clip0_64_558)">
<path d="M49.7865 1.91922C49.384 0.997535 48.6873 0.53663 47.6932 0.536133H2.30565C1.31292 0.536133 0.615291 0.997535 0.21338 1.91922C-0.188282 2.88811 -0.022972 3.71602 0.710055 4.40136L18.1921 21.8829V39.1162C18.1921 39.7316 18.4167 40.2628 18.8657 40.7127L27.9429 49.7896C28.3687 50.2384 28.9004 50.4637 29.539 50.4637C29.8224 50.4637 30.1177 50.4042 30.4251 50.2861C31.3474 49.884 31.8087 49.1868 31.8087 48.194V21.883L49.2901 4.40148C50.0234 3.71615 50.1883 2.88848 49.7865 1.91922Z" fill="#2B2C34"/>
</g>
<defs>
<clipPath id="clip0_64_558">
<rect width="50" height="50" fill="white" transform="translate(0 0.5)"/>
</clipPath>
</defs>
</svg>
