<?xml version="1.0" encoding="UTF-8"?>
<svg xmlns="http://www.w3.org/2000/svg" xmlns:xlink="http://www.w3.org/1999/xlink" width="40px" height="40px" viewBox="0 0 40 40" version="1.1">
<g id="surface1">
<path style=" stroke:none;fill-rule:nonzero;fill:rgb(0%,0%,0%);fill-opacity:1;" d="M 32.265625 7.871094 C 30.042969 5.621094 26.695312 4.898438 23.738281 6.035156 C 20.785156 7.171875 18.785156 9.949219 18.640625 13.113281 L 27.019531 21.492188 C 30.179688 21.347656 32.953125 19.347656 34.09375 16.394531 C 35.230469 13.445312 34.511719 10.097656 32.265625 7.871094 Z M 32.265625 7.871094 "/>
<path style=" stroke:none;fill-rule:nonzero;fill:rgb(0%,0%,0%);fill-opacity:1;" d="M 12.457031 22.011719 L 6.800781 27.671875 C 5.757812 28.714844 5.757812 30.402344 6.800781 31.441406 L 8.683594 33.328125 C 9.726562 34.367188 11.414062 34.367188 12.457031 33.328125 L 18.113281 27.671875 L 23.769531 22.011719 L 18.113281 16.355469 Z M 14.433594 27.578125 L 12.550781 25.691406 L 18.113281 20.128906 L 20 22.011719 Z M 14.433594 27.578125 "/>
</g>
</svg>
