<?xml version="1.0" encoding="UTF-8"?>
<svg xmlns="http://www.w3.org/2000/svg" xmlns:xlink="http://www.w3.org/1999/xlink" width="40px" height="40px" viewBox="0 0 40 40" version="1.1">
<g id="surface1">
<path style=" stroke:none;fill-rule:nonzero;fill:rgb(1.568627%,10.980392%,24.705882%);fill-opacity:1;" d="M 37.382812 12.191406 C 36.703125 10.671875 35.261719 9.542969 33.226562 8.929688 C 31.46875 8.398438 29.253906 8.25 26.796875 8.488281 C 24.757812 7.277344 22.429688 6.632812 19.996094 6.632812 C 16.429688 6.632812 13.070312 8.023438 10.546875 10.550781 C 8.636719 12.457031 7.378906 14.839844 6.878906 17.433594 C 5.066406 19.109375 3.707031 20.867188 2.9375 22.535156 C 2.042969 24.464844 1.929688 26.289062 2.613281 27.808594 C 3.691406 30.214844 6.578125 31.570312 10.742188 31.621094 C 10.828125 31.625 10.914062 31.625 11 31.625 C 11.710938 31.625 12.445312 31.585938 13.199219 31.515625 C 15.238281 32.722656 17.566406 33.367188 19.996094 33.367188 C 23.566406 33.367188 26.925781 31.976562 29.449219 29.449219 C 31.355469 27.542969 32.617188 25.160156 33.117188 22.566406 C 33.742188 21.988281 34.316406 21.398438 34.835938 20.800781 C 37.558594 17.65625 38.464844 14.597656 37.382812 12.191406 Z M 18.785156 8.59375 C 18.855469 8.828125 18.894531 9.074219 18.894531 9.324219 C 18.894531 10.710938 17.765625 11.839844 16.375 11.839844 C 15.3125 11.839844 14.382812 11.171875 14.019531 10.214844 C 15.433594 9.34375 17.054688 8.773438 18.785156 8.59375 Z M 10.765625 29.730469 C 7.433594 29.6875 5.089844 28.703125 4.339844 27.03125 C 3.882812 26.015625 3.988281 24.769531 4.65625 23.328125 C 5.09375 22.382812 5.765625 21.386719 6.636719 20.386719 C 6.734375 23.8125 8.113281 27.019531 10.546875 29.449219 C 10.640625 29.546875 10.738281 29.636719 10.835938 29.730469 C 10.8125 29.730469 10.789062 29.730469 10.765625 29.730469 Z M 19.996094 31.472656 C 18.820312 31.472656 17.6875 31.292969 16.617188 30.964844 C 18.96875 30.445312 21.417969 29.625 23.835938 28.539062 C 26.25 27.457031 28.484375 26.167969 30.4375 24.757812 C 28.625 28.714844 24.628906 31.472656 19.996094 31.472656 Z M 31.355469 21.609375 C 29.121094 23.574219 26.261719 25.375 23.058594 26.8125 C 19.855469 28.25 16.613281 29.191406 13.660156 29.558594 C 10.570312 27.5 8.527344 23.984375 8.527344 20 C 8.527344 16.558594 10.050781 13.464844 12.460938 11.359375 C 13.203125 12.777344 14.695312 13.734375 16.375 13.734375 C 18.808594 13.734375 20.789062 11.753906 20.789062 9.324219 C 20.789062 9.0625 20.765625 8.804688 20.71875 8.550781 C 26.710938 8.925781 31.46875 13.917969 31.46875 20 C 31.46875 20.546875 31.429688 21.082031 31.355469 21.609375 Z M 33.402344 19.5625 C 33.386719 19.578125 33.371094 19.59375 33.359375 19.613281 C 33.261719 16.1875 31.882812 12.980469 29.449219 10.550781 C 29.355469 10.453125 29.257812 10.363281 29.160156 10.269531 C 30.488281 10.28125 31.679688 10.441406 32.675781 10.742188 C 34.195312 11.199219 35.199219 11.949219 35.65625 12.964844 C 36.40625 14.636719 35.585938 17.039062 33.402344 19.5625 Z M 33.402344 19.5625 "/>
<path style=" stroke:none;fill-rule:nonzero;fill:rgb(1.568627%,10.980392%,24.705882%);fill-opacity:1;" d="M 16.375 16.894531 C 14.453125 16.894531 12.890625 18.460938 12.890625 20.382812 C 12.890625 22.300781 14.453125 23.867188 16.375 23.867188 C 18.296875 23.867188 19.859375 22.300781 19.859375 20.382812 C 19.859375 18.460938 18.296875 16.894531 16.375 16.894531 Z M 16.375 21.972656 C 15.496094 21.972656 14.785156 21.257812 14.785156 20.382812 C 14.785156 19.503906 15.496094 18.789062 16.375 18.789062 C 17.253906 18.789062 17.964844 19.503906 17.964844 20.382812 C 17.964844 21.257812 17.253906 21.972656 16.375 21.972656 Z M 16.375 21.972656 "/>
<path style=" stroke:none;fill-rule:nonzero;fill:rgb(1.568627%,10.980392%,24.705882%);fill-opacity:1;" d="M 26.527344 17.09375 C 24.925781 17.09375 23.621094 18.398438 23.621094 20 C 23.621094 21.601562 24.925781 22.90625 26.527344 22.90625 C 28.132812 22.90625 29.4375 21.601562 29.4375 20 C 29.4375 18.398438 28.132812 17.09375 26.527344 17.09375 Z M 26.527344 21.011719 C 25.96875 21.011719 25.515625 20.558594 25.515625 20 C 25.515625 19.441406 25.96875 18.988281 26.527344 18.988281 C 27.085938 18.988281 27.542969 19.441406 27.542969 20 C 27.542969 20.558594 27.085938 21.011719 26.527344 21.011719 Z M 26.527344 21.011719 "/>
</g>
</svg>
