<?xml version="1.0" ?><svg id="outline" viewBox="0 0 340 340" xmlns="http://www.w3.org/2000/svg"><title/><path d="M15.745,173.819V305.772A11.529,11.529,0,0,0,27.26,317.288H37.607a11.528,11.528,0,0,0,10.673-7.212H291.72a11.528,11.528,0,0,0,10.673,7.212H312.74a11.529,11.529,0,0,0,11.515-11.516V173.293a12.579,12.579,0,0,0,7.455-11.471V152.78a12.523,12.523,0,0,0-3.932-9.108,12.522,12.522,0,0,0,3.932-9.107v-9.043a12.579,12.579,0,0,0-7.455-11.471V57.5c.169-2.334,1.229-24.359-17.988-32.722a25.393,25.393,0,0,0-10.193-2.066H43.926a25.384,25.384,0,0,0-10.192,2.066C14.516,33.141,15.576,55.166,15.745,57.5v56.025A10.93,10.93,0,0,0,8.29,123.87v12.346a10.865,10.865,0,0,0,2.964,7.456,10.865,10.865,0,0,0-2.964,7.456v12.346A10.929,10.929,0,0,0,15.745,173.819ZM37.607,310.364H27.26a4.6,4.6,0,0,1-4.591-4.592V174.391H42.2V305.772A4.6,4.6,0,0,1,37.607,310.364Zm275.133,0H302.393a4.6,4.6,0,0,1-4.592-4.592V174.391h19.53V305.772A4.6,4.6,0,0,1,312.74,310.364ZM324.787,152.78v9.042a5.653,5.653,0,0,1-5.646,5.646H202.824a3.462,3.462,0,1,0,0,6.923H231.64v34.762a3.462,3.462,0,1,0,6.924,0V174.391h52.314V303.153H49.122V282.286H279.176a3.462,3.462,0,0,0,0-6.923H238.564V235.768a3.462,3.462,0,0,0-6.924,0v39.6H108.36V262.148a3.462,3.462,0,1,0-6.924,0v13.215H49.122V174.391h52.314v52.228a3.462,3.462,0,0,0,6.924,0V174.391h29.569a3.462,3.462,0,1,0,0-6.923H19.207a4,4,0,0,1-3.994-3.994V151.128a4,4,0,0,1,3.994-3.995H145.6V159.7a3.462,3.462,0,1,0,6.923,0V116.373a3.626,3.626,0,0,1,3.622-3.621h27.7a3.626,3.626,0,0,1,3.622,3.621v44.39a3.462,3.462,0,1,0,6.923,0v-13.63H319.141A5.654,5.654,0,0,1,324.787,152.78ZM296.074,29.636a18.5,18.5,0,0,1,7.43,1.49c15.262,6.643,13.9,25.159,13.841,25.936-.009.1-.014.2-.014.3v55.588H297.8V57.365c0-.616-.028-1.21-.053-1.806,0-.02.006-.039.006-.059,0-.037-.009-.07-.011-.107a34.021,34.021,0,0,0-12.805-25.757Zm-227.168,0H271.092c2.662.86,16.768,6.163,19.366,22.4H178.681a3.462,3.462,0,0,0,0,6.924h112.2v22H108.251a3.462,3.462,0,0,0,0,6.924H290.878v25.062H203.822a3.462,3.462,0,0,0,0,6.923H319.141a5.653,5.653,0,0,1,5.646,5.646v9.043a5.652,5.652,0,0,1-5.646,5.645H194.4V116.373a10.556,10.556,0,0,0-10.545-10.544h-27.7a10.556,10.556,0,0,0-9.965,7.124H49.122V87.891h32.35a3.462,3.462,0,1,0,0-6.924H49.122v-22h82.7a3.462,3.462,0,0,0,0-6.924H49.542C52.142,35.786,66.269,30.487,68.906,29.636ZM36.5,31.126a18.5,18.5,0,0,1,7.43-1.49H55.062a34.021,34.021,0,0,0-12.8,25.757c0,.037-.011.07-.011.107,0,.02,0,.039.006.059-.025.6-.053,1.19-.053,1.806v55.588H22.669V57.365c0-.1,0-.2-.014-.3C22.638,56.87,21.144,37.807,36.5,31.126ZM15.213,123.87a4,4,0,0,1,3.994-3.994H145.6V140.21H19.207a4,4,0,0,1-3.994-3.994Z"/><path d="M196.565,187.932a26.654,26.654,0,0,0-15.733-24.256,10.832,10.832,0,0,0-21.664,0,26.642,26.642,0,0,0-15.733,24.259v17.086a11.154,11.154,0,0,0-7.678,10.581v16.637A27.978,27.978,0,0,0,163.7,260.182H176.3a27.978,27.978,0,0,0,27.947-27.946V215.6a11.154,11.154,0,0,0-7.678-10.581Zm-6.923,0V204.46h-5.809V188.732a13.833,13.833,0,0,0-3-8.582v-8.6A19.721,19.721,0,0,1,189.642,187.932ZM163.091,190.2a10.808,10.808,0,0,0,13.818,0V204.46H163.091Zm3-26.521a3.909,3.909,0,0,1,7.818,0v18.185a3.909,3.909,0,0,1-7.818,0Zm-6.924,7.867v8.6a13.806,13.806,0,0,0-3,8.581V204.46h-5.81V187.932A19.7,19.7,0,0,1,159.167,171.55Zm38.153,60.686A21.048,21.048,0,0,1,176.3,253.259H163.7a21.048,21.048,0,0,1-21.024-21.023V215.6a4.222,4.222,0,0,1,4.217-4.216H193.1a4.222,4.222,0,0,1,4.217,4.216Z"/><path d="M170,224.394a3.462,3.462,0,0,0-3.462,3.461v6.1a3.462,3.462,0,1,0,6.924,0v-6.1A3.462,3.462,0,0,0,170,224.394Z"/><path d="M104.9,239.514a3.463,3.463,0,0,0-3.462,3.462v2.5a3.462,3.462,0,0,0,6.924,0v-2.5A3.463,3.463,0,0,0,104.9,239.514Z"/><path d="M151.366,58.962h6.427a3.462,3.462,0,0,0,0-6.924h-6.427a3.462,3.462,0,0,0,0,6.924Z"/><circle cx="32.434" cy="292.72" r="3.462"/><circle cx="104.898" cy="292.72" r="3.462"/><circle cx="32.434" cy="225.943" r="3.462"/><circle cx="32.434" cy="157.301" r="3.462"/><circle cx="32.434" cy="130.043" r="3.462"/><circle cx="104.898" cy="157.301" r="3.462"/><circle cx="104.898" cy="130.043" r="3.462"/><circle cx="33.833" cy="85.695" r="3.462"/><circle cx="33.833" cy="55.5" r="3.462"/><circle cx="307.566" cy="292.72" r="3.462"/><circle cx="235.102" cy="292.72" r="3.462"/><circle cx="170" cy="292.72" r="3.462"/><circle cx="307.566" cy="225.943" r="3.462"/><circle cx="307.566" cy="157.301" r="3.462"/><circle cx="307.566" cy="130.043" r="3.462"/><circle cx="235.102" cy="157.301" r="3.462"/><circle cx="235.102" cy="130.043" r="3.462"/><circle cx="306.167" cy="85.695" r="3.462"/><circle cx="306.167" cy="55.5" r="3.462"/></svg>