<svg width="33" height="33" viewBox="0 0 33 33" fill="none" xmlns="http://www.w3.org/2000/svg">
<path d="M28.2028 25.086L23.1258 20.009C24.1748 18.428 24.7888 16.535 24.7888 14.5C24.7888 8.986 20.3028 4.5 14.7888 4.5C9.27482 4.5 4.78882 8.986 4.78882 14.5C4.78882 20.014 9.27482 24.5 14.7888 24.5C16.8238 24.5 18.7168 23.886 20.2978 22.837L25.3748 27.914C26.1548 28.695 27.4228 28.695 28.2028 27.914C28.9838 27.133 28.9838 25.867 28.2028 25.086ZM7.78882 14.5C7.78882 10.64 10.9288 7.5 14.7888 7.5C18.6488 7.5 21.7888 10.64 21.7888 14.5C21.7888 18.36 18.6488 21.5 14.7888 21.5C10.9288 21.5 7.78882 18.36 7.78882 14.5Z" fill="#2B2C34"/>
</svg>
